<mxfile host="app.diagrams.net" agent="Mozilla/5.0 (Windows NT 10.0; Win64; x64) AppleWebKit/537.36 (KHTML, like Gecko) Chrome/131.0.0.0 Safari/537.36" version="24.8.6" pages="3">
  <diagram name="Page-1" id="-NDUtS6Aw-fNEqFQIyKa">
    <mxGraphModel dx="1381" dy="663" grid="1" gridSize="10" guides="1" tooltips="1" connect="1" arrows="1" fold="1" page="1" pageScale="1" pageWidth="850" pageHeight="1100" math="0" shadow="0">
      <root>
        <mxCell id="0" />
        <mxCell id="1" parent="0" />
        <mxCell id="1dMcSSJAG0kBczMJyQBT-3" value="" style="edgeStyle=orthogonalEdgeStyle;rounded=0;orthogonalLoop=1;jettySize=auto;html=1;" parent="1" source="1dMcSSJAG0kBczMJyQBT-1" target="1dMcSSJAG0kBczMJyQBT-2" edge="1">
          <mxGeometry relative="1" as="geometry" />
        </mxCell>
        <mxCell id="1dMcSSJAG0kBczMJyQBT-1" value="Mulai" style="ellipse;whiteSpace=wrap;html=1;" parent="1" vertex="1">
          <mxGeometry x="82.5" y="10" width="120" height="80" as="geometry" />
        </mxCell>
        <mxCell id="1dMcSSJAG0kBczMJyQBT-5" value="" style="edgeStyle=orthogonalEdgeStyle;rounded=0;orthogonalLoop=1;jettySize=auto;html=1;" parent="1" source="1dMcSSJAG0kBczMJyQBT-2" target="1dMcSSJAG0kBczMJyQBT-4" edge="1">
          <mxGeometry relative="1" as="geometry" />
        </mxCell>
        <mxCell id="1dMcSSJAG0kBczMJyQBT-2" value="Menginput pilihan&amp;nbsp;&lt;div&gt;(1/2/3)&lt;div&gt;1.&lt;span style=&quot;background-color: initial;&quot;&gt;&amp;nbsp;Login&lt;/span&gt;&lt;/div&gt;&lt;div&gt;2. Registrasi User Baru&lt;/div&gt;&lt;div&gt;3. Keluar&lt;/div&gt;&lt;/div&gt;" style="shape=parallelogram;perimeter=parallelogramPerimeter;whiteSpace=wrap;html=1;fixedSize=1;align=center;" parent="1" vertex="1">
          <mxGeometry x="70" y="120" width="145" height="130" as="geometry" />
        </mxCell>
        <mxCell id="1dMcSSJAG0kBczMJyQBT-7" value="" style="edgeStyle=orthogonalEdgeStyle;rounded=0;orthogonalLoop=1;jettySize=auto;html=1;" parent="1" source="1dMcSSJAG0kBczMJyQBT-4" target="1dMcSSJAG0kBczMJyQBT-6" edge="1">
          <mxGeometry relative="1" as="geometry" />
        </mxCell>
        <mxCell id="DcdzVRwghYSMpWZO44ve-5" value="tidak" style="edgeLabel;html=1;align=center;verticalAlign=middle;resizable=0;points=[];" vertex="1" connectable="0" parent="1dMcSSJAG0kBczMJyQBT-7">
          <mxGeometry x="-0.245" relative="1" as="geometry">
            <mxPoint as="offset" />
          </mxGeometry>
        </mxCell>
        <mxCell id="1dMcSSJAG0kBczMJyQBT-13" value="" style="edgeStyle=orthogonalEdgeStyle;rounded=0;orthogonalLoop=1;jettySize=auto;html=1;" parent="1" source="1dMcSSJAG0kBczMJyQBT-4" edge="1">
          <mxGeometry relative="1" as="geometry">
            <mxPoint x="340" y="185" as="targetPoint" />
          </mxGeometry>
        </mxCell>
        <mxCell id="DcdzVRwghYSMpWZO44ve-6" value="yes" style="edgeLabel;html=1;align=center;verticalAlign=middle;resizable=0;points=[];" vertex="1" connectable="0" parent="1dMcSSJAG0kBczMJyQBT-13">
          <mxGeometry x="-0.4183" y="2" relative="1" as="geometry">
            <mxPoint as="offset" />
          </mxGeometry>
        </mxCell>
        <mxCell id="1dMcSSJAG0kBczMJyQBT-4" value="Jika input = 1" style="rhombus;whiteSpace=wrap;html=1;align=left;" parent="1" vertex="1">
          <mxGeometry x="230" y="145" width="80" height="80" as="geometry" />
        </mxCell>
        <mxCell id="1dMcSSJAG0kBczMJyQBT-9" value="" style="edgeStyle=orthogonalEdgeStyle;rounded=0;orthogonalLoop=1;jettySize=auto;html=1;" parent="1" source="1dMcSSJAG0kBczMJyQBT-6" target="1dMcSSJAG0kBczMJyQBT-8" edge="1">
          <mxGeometry relative="1" as="geometry" />
        </mxCell>
        <mxCell id="DcdzVRwghYSMpWZO44ve-7" value="tidak" style="edgeLabel;html=1;align=center;verticalAlign=middle;resizable=0;points=[];" vertex="1" connectable="0" parent="1dMcSSJAG0kBczMJyQBT-9">
          <mxGeometry x="-0.2306" y="-1" relative="1" as="geometry">
            <mxPoint as="offset" />
          </mxGeometry>
        </mxCell>
        <mxCell id="1dMcSSJAG0kBczMJyQBT-25" value="" style="edgeStyle=orthogonalEdgeStyle;rounded=0;orthogonalLoop=1;jettySize=auto;html=1;" parent="1" source="1dMcSSJAG0kBczMJyQBT-6" target="1dMcSSJAG0kBczMJyQBT-24" edge="1">
          <mxGeometry relative="1" as="geometry" />
        </mxCell>
        <mxCell id="DcdzVRwghYSMpWZO44ve-10" value="ya" style="edgeLabel;html=1;align=center;verticalAlign=middle;resizable=0;points=[];" vertex="1" connectable="0" parent="1dMcSSJAG0kBczMJyQBT-25">
          <mxGeometry x="0.1917" y="2" relative="1" as="geometry">
            <mxPoint as="offset" />
          </mxGeometry>
        </mxCell>
        <mxCell id="1dMcSSJAG0kBczMJyQBT-6" value="Jika input = 2" style="rhombus;whiteSpace=wrap;html=1;align=left;" parent="1" vertex="1">
          <mxGeometry x="230" y="370" width="80" height="80" as="geometry" />
        </mxCell>
        <mxCell id="1dMcSSJAG0kBczMJyQBT-31" value="" style="edgeStyle=orthogonalEdgeStyle;rounded=0;orthogonalLoop=1;jettySize=auto;html=1;" parent="1" source="1dMcSSJAG0kBczMJyQBT-8" target="1dMcSSJAG0kBczMJyQBT-30" edge="1">
          <mxGeometry relative="1" as="geometry" />
        </mxCell>
        <mxCell id="DcdzVRwghYSMpWZO44ve-9" value="ya" style="edgeLabel;html=1;align=center;verticalAlign=middle;resizable=0;points=[];" vertex="1" connectable="0" parent="1dMcSSJAG0kBczMJyQBT-31">
          <mxGeometry x="-0.1692" y="2" relative="1" as="geometry">
            <mxPoint as="offset" />
          </mxGeometry>
        </mxCell>
        <mxCell id="1dMcSSJAG0kBczMJyQBT-35" value="" style="edgeStyle=orthogonalEdgeStyle;rounded=0;orthogonalLoop=1;jettySize=auto;html=1;" parent="1" source="1dMcSSJAG0kBczMJyQBT-8" target="1dMcSSJAG0kBczMJyQBT-34" edge="1">
          <mxGeometry relative="1" as="geometry" />
        </mxCell>
        <mxCell id="DcdzVRwghYSMpWZO44ve-8" value="tidak" style="edgeLabel;html=1;align=center;verticalAlign=middle;resizable=0;points=[];" vertex="1" connectable="0" parent="1dMcSSJAG0kBczMJyQBT-35">
          <mxGeometry x="-0.19" y="1" relative="1" as="geometry">
            <mxPoint as="offset" />
          </mxGeometry>
        </mxCell>
        <mxCell id="1dMcSSJAG0kBczMJyQBT-8" value="Jika input = 3" style="rhombus;whiteSpace=wrap;html=1;align=left;" parent="1" vertex="1">
          <mxGeometry x="230" y="540" width="80" height="80" as="geometry" />
        </mxCell>
        <mxCell id="1dMcSSJAG0kBczMJyQBT-24" value="Masukkan&lt;div&gt;Username&lt;/div&gt;" style="shape=parallelogram;perimeter=parallelogramPerimeter;whiteSpace=wrap;html=1;fixedSize=1;align=center;" parent="1" vertex="1">
          <mxGeometry x="340" y="380" width="120" height="60" as="geometry" />
        </mxCell>
        <mxCell id="1dMcSSJAG0kBczMJyQBT-29" value="" style="edgeStyle=orthogonalEdgeStyle;rounded=0;orthogonalLoop=1;jettySize=auto;html=1;" parent="1" source="1dMcSSJAG0kBczMJyQBT-26" target="1dMcSSJAG0kBczMJyQBT-28" edge="1">
          <mxGeometry relative="1" as="geometry" />
        </mxCell>
        <mxCell id="1dMcSSJAG0kBczMJyQBT-26" value="Masukkan&amp;nbsp;&lt;div&gt;Password&lt;/div&gt;" style="shape=parallelogram;perimeter=parallelogramPerimeter;whiteSpace=wrap;html=1;fixedSize=1;" parent="1" vertex="1">
          <mxGeometry x="825" y="530" width="120" height="60" as="geometry" />
        </mxCell>
        <mxCell id="-KChaFOd6oSQonMqzagd-12" value="" style="edgeStyle=orthogonalEdgeStyle;rounded=0;orthogonalLoop=1;jettySize=auto;html=1;" parent="1" source="1dMcSSJAG0kBczMJyQBT-28" target="-KChaFOd6oSQonMqzagd-11" edge="1">
          <mxGeometry relative="1" as="geometry" />
        </mxCell>
        <mxCell id="1dMcSSJAG0kBczMJyQBT-28" value="Data tersimpan di Database" style="shape=cylinder3;whiteSpace=wrap;html=1;boundedLbl=1;backgroundOutline=1;size=15;" parent="1" vertex="1">
          <mxGeometry x="855" y="650" width="60" height="80" as="geometry" />
        </mxCell>
        <mxCell id="6MHdEwSznJubVBLy4Kzz-2" value="" style="edgeStyle=orthogonalEdgeStyle;rounded=0;orthogonalLoop=1;jettySize=auto;html=1;" parent="1" source="1dMcSSJAG0kBczMJyQBT-30" target="6MHdEwSznJubVBLy4Kzz-1" edge="1">
          <mxGeometry relative="1" as="geometry" />
        </mxCell>
        <mxCell id="1dMcSSJAG0kBczMJyQBT-30" value="Keluar dari Program" style="shape=parallelogram;perimeter=parallelogramPerimeter;whiteSpace=wrap;html=1;fixedSize=1;align=left;" parent="1" vertex="1">
          <mxGeometry x="365" y="550" width="120" height="60" as="geometry" />
        </mxCell>
        <mxCell id="1dMcSSJAG0kBczMJyQBT-34" value="" style="ellipse;whiteSpace=wrap;html=1;align=left;fillColor=#a20025;fontColor=#ffffff;strokeColor=#6F0000;" parent="1" vertex="1">
          <mxGeometry x="250" y="670" width="40" height="40" as="geometry" />
        </mxCell>
        <mxCell id="1dMcSSJAG0kBczMJyQBT-44" value="" style="edgeStyle=orthogonalEdgeStyle;rounded=0;orthogonalLoop=1;jettySize=auto;html=1;" parent="1" target="1dMcSSJAG0kBczMJyQBT-43" edge="1">
          <mxGeometry relative="1" as="geometry">
            <mxPoint x="430" y="185" as="sourcePoint" />
          </mxGeometry>
        </mxCell>
        <mxCell id="NHLyl-m4o0W0h8UV8HJD-1" value="" style="edgeStyle=orthogonalEdgeStyle;rounded=0;orthogonalLoop=1;jettySize=auto;html=1;" parent="1" source="1dMcSSJAG0kBczMJyQBT-39" target="1BtDS-56krsST5m9bCpH-1" edge="1">
          <mxGeometry relative="1" as="geometry" />
        </mxCell>
        <mxCell id="1dMcSSJAG0kBczMJyQBT-39" value="Masukkan username" style="shape=parallelogram;perimeter=parallelogramPerimeter;whiteSpace=wrap;html=1;fixedSize=1;" parent="1" vertex="1">
          <mxGeometry x="330" y="155" width="120" height="60" as="geometry" />
        </mxCell>
        <mxCell id="1dMcSSJAG0kBczMJyQBT-46" value="" style="edgeStyle=orthogonalEdgeStyle;rounded=0;orthogonalLoop=1;jettySize=auto;html=1;" parent="1" source="1dMcSSJAG0kBczMJyQBT-43" target="1dMcSSJAG0kBczMJyQBT-45" edge="1">
          <mxGeometry relative="1" as="geometry" />
        </mxCell>
        <mxCell id="1dMcSSJAG0kBczMJyQBT-43" value="Masukkan Password Admin" style="shape=parallelogram;perimeter=parallelogramPerimeter;whiteSpace=wrap;html=1;fixedSize=1;" parent="1" vertex="1">
          <mxGeometry x="480" y="155" width="120" height="60" as="geometry" />
        </mxCell>
        <mxCell id="1dMcSSJAG0kBczMJyQBT-45" value="Menu Admin" style="shape=offPageConnector;whiteSpace=wrap;html=1;fillColor=#e1d5e7;strokeColor=#9673a6;" parent="1" vertex="1">
          <mxGeometry x="660" y="145" width="80" height="80" as="geometry" />
        </mxCell>
        <mxCell id="1dMcSSJAG0kBczMJyQBT-47" value="Menu User" style="shape=offPageConnector;whiteSpace=wrap;html=1;fillColor=#dae8fc;strokeColor=#6c8ebf;" parent="1" vertex="1">
          <mxGeometry x="850" y="275" width="70" height="70" as="geometry" />
        </mxCell>
        <mxCell id="6MHdEwSznJubVBLy4Kzz-1" value="End" style="ellipse;whiteSpace=wrap;html=1;align=center;" parent="1" vertex="1">
          <mxGeometry x="550" y="540" width="100" height="80" as="geometry" />
        </mxCell>
        <mxCell id="yb546YLmyVM77lyH0D2q-3" value="" style="edgeStyle=orthogonalEdgeStyle;rounded=0;orthogonalLoop=1;jettySize=auto;html=1;" parent="1" source="yb546YLmyVM77lyH0D2q-2" target="1dMcSSJAG0kBczMJyQBT-2" edge="1">
          <mxGeometry relative="1" as="geometry" />
        </mxCell>
        <mxCell id="yb546YLmyVM77lyH0D2q-2" value="" style="ellipse;whiteSpace=wrap;html=1;aspect=fixed;fillColor=#a20025;fontColor=#ffffff;strokeColor=#6F0000;" parent="1" vertex="1">
          <mxGeometry y="165" width="40" height="40" as="geometry" />
        </mxCell>
        <mxCell id="EzCfNDxWfJao1w9SPFGL-2" value="" style="edgeStyle=orthogonalEdgeStyle;rounded=0;orthogonalLoop=1;jettySize=auto;html=1;" parent="1" source="EzCfNDxWfJao1w9SPFGL-1" target="6MHdEwSznJubVBLy4Kzz-1" edge="1">
          <mxGeometry relative="1" as="geometry" />
        </mxCell>
        <mxCell id="EzCfNDxWfJao1w9SPFGL-1" value="" style="ellipse;whiteSpace=wrap;html=1;aspect=fixed;fillColor=#6d8764;fontColor=#ffffff;strokeColor=#3A5431;" parent="1" vertex="1">
          <mxGeometry x="585" y="480" width="30" height="30" as="geometry" />
        </mxCell>
        <mxCell id="NHLyl-m4o0W0h8UV8HJD-2" style="edgeStyle=orthogonalEdgeStyle;rounded=0;orthogonalLoop=1;jettySize=auto;html=1;exitX=1;exitY=0.5;exitDx=0;exitDy=0;exitPerimeter=0;" parent="1" source="1BtDS-56krsST5m9bCpH-1" target="1BtDS-56krsST5m9bCpH-2" edge="1">
          <mxGeometry relative="1" as="geometry" />
        </mxCell>
        <mxCell id="1BtDS-56krsST5m9bCpH-1" value="Database" style="shape=cylinder3;whiteSpace=wrap;html=1;boundedLbl=1;backgroundOutline=1;size=15;" parent="1" vertex="1">
          <mxGeometry x="360" y="270" width="60" height="80" as="geometry" />
        </mxCell>
        <mxCell id="-KChaFOd6oSQonMqzagd-2" value="" style="edgeStyle=orthogonalEdgeStyle;rounded=0;orthogonalLoop=1;jettySize=auto;html=1;" parent="1" source="1BtDS-56krsST5m9bCpH-2" target="-KChaFOd6oSQonMqzagd-1" edge="1">
          <mxGeometry relative="1" as="geometry" />
        </mxCell>
        <mxCell id="1BtDS-56krsST5m9bCpH-2" value="apakah ada di database" style="rhombus;whiteSpace=wrap;html=1;" parent="1" vertex="1">
          <mxGeometry x="485" y="270" width="80" height="80" as="geometry" />
        </mxCell>
        <mxCell id="-KChaFOd6oSQonMqzagd-3" value="" style="edgeStyle=orthogonalEdgeStyle;rounded=0;orthogonalLoop=1;jettySize=auto;html=1;" parent="1" source="-KChaFOd6oSQonMqzagd-1" target="1dMcSSJAG0kBczMJyQBT-47" edge="1">
          <mxGeometry relative="1" as="geometry" />
        </mxCell>
        <mxCell id="DcdzVRwghYSMpWZO44ve-1" value="ya" style="edgeLabel;html=1;align=center;verticalAlign=middle;resizable=0;points=[];" vertex="1" connectable="0" parent="-KChaFOd6oSQonMqzagd-3">
          <mxGeometry x="-0.2937" y="-1" relative="1" as="geometry">
            <mxPoint as="offset" />
          </mxGeometry>
        </mxCell>
        <mxCell id="-KChaFOd6oSQonMqzagd-9" value="" style="edgeStyle=orthogonalEdgeStyle;rounded=0;orthogonalLoop=1;jettySize=auto;html=1;" parent="1" source="-KChaFOd6oSQonMqzagd-1" target="-KChaFOd6oSQonMqzagd-8" edge="1">
          <mxGeometry relative="1" as="geometry" />
        </mxCell>
        <mxCell id="DcdzVRwghYSMpWZO44ve-2" value="tidak" style="edgeLabel;html=1;align=center;verticalAlign=middle;resizable=0;points=[];" vertex="1" connectable="0" parent="-KChaFOd6oSQonMqzagd-9">
          <mxGeometry x="0.0222" relative="1" as="geometry">
            <mxPoint as="offset" />
          </mxGeometry>
        </mxCell>
        <mxCell id="-KChaFOd6oSQonMqzagd-1" value="apakah password benar" style="rhombus;whiteSpace=wrap;html=1;" parent="1" vertex="1">
          <mxGeometry x="730" y="270" width="80" height="80" as="geometry" />
        </mxCell>
        <mxCell id="-KChaFOd6oSQonMqzagd-8" value="" style="ellipse;whiteSpace=wrap;html=1;aspect=fixed;fillColor=#e51400;fontColor=#ffffff;strokeColor=#B20000;" parent="1" vertex="1">
          <mxGeometry x="755" y="195" width="30" height="30" as="geometry" />
        </mxCell>
        <mxCell id="-KChaFOd6oSQonMqzagd-11" value="" style="ellipse;whiteSpace=wrap;html=1;aspect=fixed;fillColor=#e51400;fontColor=#ffffff;strokeColor=#B20000;" parent="1" vertex="1">
          <mxGeometry x="870" y="770" width="30" height="30" as="geometry" />
        </mxCell>
        <mxCell id="NHLyl-m4o0W0h8UV8HJD-3" value="Apakah Password sudah benar?" style="shape=parallelogram;perimeter=parallelogramPerimeter;whiteSpace=wrap;html=1;fixedSize=1;" parent="1" vertex="1">
          <mxGeometry x="585" y="280" width="120" height="60" as="geometry" />
        </mxCell>
        <mxCell id="NHLyl-m4o0W0h8UV8HJD-5" value="" style="edgeStyle=orthogonalEdgeStyle;rounded=0;orthogonalLoop=1;jettySize=auto;html=1;" parent="1" source="1dMcSSJAG0kBczMJyQBT-24" target="NHLyl-m4o0W0h8UV8HJD-4" edge="1">
          <mxGeometry relative="1" as="geometry">
            <mxPoint x="440" y="410" as="sourcePoint" />
            <mxPoint x="705" y="550" as="targetPoint" />
          </mxGeometry>
        </mxCell>
        <mxCell id="NHLyl-m4o0W0h8UV8HJD-4" value="Database" style="shape=cylinder3;whiteSpace=wrap;html=1;boundedLbl=1;backgroundOutline=1;size=15;" parent="1" vertex="1">
          <mxGeometry x="495" y="370" width="60" height="80" as="geometry" />
        </mxCell>
        <mxCell id="NHLyl-m4o0W0h8UV8HJD-7" value="" style="edgeStyle=orthogonalEdgeStyle;rounded=0;orthogonalLoop=1;jettySize=auto;html=1;" parent="1" source="NHLyl-m4o0W0h8UV8HJD-4" target="NHLyl-m4o0W0h8UV8HJD-6" edge="1">
          <mxGeometry relative="1" as="geometry">
            <mxPoint x="555" y="410" as="sourcePoint" />
            <mxPoint x="705" y="550" as="targetPoint" />
          </mxGeometry>
        </mxCell>
        <mxCell id="NHLyl-m4o0W0h8UV8HJD-11" style="edgeStyle=orthogonalEdgeStyle;rounded=0;orthogonalLoop=1;jettySize=auto;html=1;exitX=0.5;exitY=1;exitDx=0;exitDy=0;entryX=0.5;entryY=0;entryDx=0;entryDy=0;" parent="1" source="NHLyl-m4o0W0h8UV8HJD-6" target="NHLyl-m4o0W0h8UV8HJD-10" edge="1">
          <mxGeometry relative="1" as="geometry" />
        </mxCell>
        <mxCell id="DcdzVRwghYSMpWZO44ve-3" value="ya" style="edgeLabel;html=1;align=center;verticalAlign=middle;resizable=0;points=[];" vertex="1" connectable="0" parent="NHLyl-m4o0W0h8UV8HJD-11">
          <mxGeometry x="-0.3687" relative="1" as="geometry">
            <mxPoint as="offset" />
          </mxGeometry>
        </mxCell>
        <mxCell id="NHLyl-m4o0W0h8UV8HJD-6" value="Apakah username ada di database" style="rhombus;whiteSpace=wrap;html=1;" parent="1" vertex="1">
          <mxGeometry x="740" y="370" width="80" height="80" as="geometry" />
        </mxCell>
        <mxCell id="NHLyl-m4o0W0h8UV8HJD-8" style="edgeStyle=orthogonalEdgeStyle;rounded=0;orthogonalLoop=1;jettySize=auto;html=1;exitX=1;exitY=0.5;exitDx=0;exitDy=0;entryX=0.583;entryY=-0.049;entryDx=0;entryDy=0;entryPerimeter=0;" parent="1" source="NHLyl-m4o0W0h8UV8HJD-6" target="1dMcSSJAG0kBczMJyQBT-26" edge="1">
          <mxGeometry relative="1" as="geometry" />
        </mxCell>
        <mxCell id="DcdzVRwghYSMpWZO44ve-4" value="tidak" style="edgeLabel;html=1;align=center;verticalAlign=middle;resizable=0;points=[];" vertex="1" connectable="0" parent="NHLyl-m4o0W0h8UV8HJD-8">
          <mxGeometry x="0.0231" y="1" relative="1" as="geometry">
            <mxPoint as="offset" />
          </mxGeometry>
        </mxCell>
        <mxCell id="NHLyl-m4o0W0h8UV8HJD-10" value="" style="ellipse;whiteSpace=wrap;html=1;aspect=fixed;fillColor=#e51400;fontColor=#ffffff;strokeColor=#B20000;" parent="1" vertex="1">
          <mxGeometry x="765" y="490" width="30" height="30" as="geometry" />
        </mxCell>
      </root>
    </mxGraphModel>
  </diagram>
  <diagram id="N-St3xSFaEHaw6ueNfKO" name="Page-2">
    <mxGraphModel dx="1381" dy="652" grid="1" gridSize="10" guides="1" tooltips="1" connect="1" arrows="1" fold="1" page="1" pageScale="1" pageWidth="850" pageHeight="1100" math="0" shadow="0">
      <root>
        <mxCell id="0" />
        <mxCell id="1" parent="0" />
        <mxCell id="iYAlvpaZnLqNB3ZeRXBc-1" value="" style="edgeStyle=orthogonalEdgeStyle;rounded=0;orthogonalLoop=1;jettySize=auto;html=1;" parent="1" source="FEb0zE-_EcP4gWyUpgyo-1" target="FEb0zE-_EcP4gWyUpgyo-4" edge="1">
          <mxGeometry relative="1" as="geometry" />
        </mxCell>
        <mxCell id="FEb0zE-_EcP4gWyUpgyo-1" value="Menu Admin" style="shape=offPageConnector;whiteSpace=wrap;html=1;fillColor=#e1d5e7;strokeColor=#9673a6;" parent="1" vertex="1">
          <mxGeometry x="135" y="20" width="80" height="80" as="geometry" />
        </mxCell>
        <mxCell id="Rpfw_NwR-ozSrpNte6tN-2" value="" style="edgeStyle=orthogonalEdgeStyle;rounded=0;orthogonalLoop=1;jettySize=auto;html=1;" parent="1" source="FEb0zE-_EcP4gWyUpgyo-4" target="Rpfw_NwR-ozSrpNte6tN-1" edge="1">
          <mxGeometry relative="1" as="geometry" />
        </mxCell>
        <mxCell id="FEb0zE-_EcP4gWyUpgyo-4" value="Menginput Pilihan (1/2/3/4/5)&lt;div&gt;&lt;div&gt;1. Tambah Wisata&lt;/div&gt;&lt;div&gt;2. Ubah Wisata&lt;/div&gt;&lt;div&gt;3. Hapus Wisata&lt;/div&gt;&lt;div&gt;4. Lihat Daftar Wisata&lt;/div&gt;&lt;div&gt;5. Logout&lt;/div&gt;&lt;/div&gt;" style="shape=parallelogram;perimeter=parallelogramPerimeter;whiteSpace=wrap;html=1;fixedSize=1;" parent="1" vertex="1">
          <mxGeometry x="100" y="140" width="150" height="100" as="geometry" />
        </mxCell>
        <mxCell id="Rpfw_NwR-ozSrpNte6tN-7" value="" style="edgeStyle=orthogonalEdgeStyle;rounded=0;orthogonalLoop=1;jettySize=auto;html=1;" parent="1" source="Rpfw_NwR-ozSrpNte6tN-1" target="Rpfw_NwR-ozSrpNte6tN-6" edge="1">
          <mxGeometry relative="1" as="geometry" />
        </mxCell>
        <mxCell id="EIrdgoCITJOfcZMwzrEn-1" value="tidak" style="edgeLabel;html=1;align=center;verticalAlign=middle;resizable=0;points=[];" vertex="1" connectable="0" parent="Rpfw_NwR-ozSrpNte6tN-7">
          <mxGeometry x="0.2" y="-1" relative="1" as="geometry">
            <mxPoint as="offset" />
          </mxGeometry>
        </mxCell>
        <mxCell id="ga41-6N_7TNOr7C-JhKs-2" value="" style="edgeStyle=orthogonalEdgeStyle;rounded=0;orthogonalLoop=1;jettySize=auto;html=1;" parent="1" source="Rpfw_NwR-ozSrpNte6tN-1" edge="1">
          <mxGeometry relative="1" as="geometry">
            <mxPoint x="350.03999999999996" y="260" as="targetPoint" />
          </mxGeometry>
        </mxCell>
        <mxCell id="EIrdgoCITJOfcZMwzrEn-6" value="ya" style="edgeLabel;html=1;align=center;verticalAlign=middle;resizable=0;points=[];" vertex="1" connectable="0" parent="ga41-6N_7TNOr7C-JhKs-2">
          <mxGeometry x="-0.4576" y="1" relative="1" as="geometry">
            <mxPoint as="offset" />
          </mxGeometry>
        </mxCell>
        <mxCell id="Rpfw_NwR-ozSrpNte6tN-1" value="Jika input = 1" style="rhombus;whiteSpace=wrap;html=1;" parent="1" vertex="1">
          <mxGeometry x="310" y="150" width="80" height="80" as="geometry" />
        </mxCell>
        <mxCell id="Rpfw_NwR-ozSrpNte6tN-9" value="" style="edgeStyle=orthogonalEdgeStyle;rounded=0;orthogonalLoop=1;jettySize=auto;html=1;" parent="1" source="Rpfw_NwR-ozSrpNte6tN-6" target="Rpfw_NwR-ozSrpNte6tN-8" edge="1">
          <mxGeometry relative="1" as="geometry" />
        </mxCell>
        <mxCell id="EIrdgoCITJOfcZMwzrEn-2" value="tidak" style="edgeLabel;html=1;align=center;verticalAlign=middle;resizable=0;points=[];" vertex="1" connectable="0" parent="Rpfw_NwR-ozSrpNte6tN-9">
          <mxGeometry x="-0.52" relative="1" as="geometry">
            <mxPoint as="offset" />
          </mxGeometry>
        </mxCell>
        <mxCell id="ga41-6N_7TNOr7C-JhKs-8" value="" style="edgeStyle=orthogonalEdgeStyle;rounded=0;orthogonalLoop=1;jettySize=auto;html=1;" parent="1" source="Rpfw_NwR-ozSrpNte6tN-6" target="ga41-6N_7TNOr7C-JhKs-7" edge="1">
          <mxGeometry relative="1" as="geometry" />
        </mxCell>
        <mxCell id="EIrdgoCITJOfcZMwzrEn-7" value="ya" style="edgeLabel;html=1;align=center;verticalAlign=middle;resizable=0;points=[];" vertex="1" connectable="0" parent="ga41-6N_7TNOr7C-JhKs-8">
          <mxGeometry x="-0.6528" relative="1" as="geometry">
            <mxPoint as="offset" />
          </mxGeometry>
        </mxCell>
        <mxCell id="Rpfw_NwR-ozSrpNte6tN-6" value="Jika input = 2" style="rhombus;whiteSpace=wrap;html=1;" parent="1" vertex="1">
          <mxGeometry x="530" y="150" width="80" height="80" as="geometry" />
        </mxCell>
        <mxCell id="Rpfw_NwR-ozSrpNte6tN-11" value="" style="edgeStyle=orthogonalEdgeStyle;rounded=0;orthogonalLoop=1;jettySize=auto;html=1;" parent="1" source="Rpfw_NwR-ozSrpNte6tN-8" target="Rpfw_NwR-ozSrpNte6tN-10" edge="1">
          <mxGeometry relative="1" as="geometry" />
        </mxCell>
        <mxCell id="EIrdgoCITJOfcZMwzrEn-3" value="tidak" style="edgeLabel;html=1;align=center;verticalAlign=middle;resizable=0;points=[];" vertex="1" connectable="0" parent="Rpfw_NwR-ozSrpNte6tN-11">
          <mxGeometry x="-0.2308" y="-1" relative="1" as="geometry">
            <mxPoint as="offset" />
          </mxGeometry>
        </mxCell>
        <mxCell id="EucmjnNVdxydKjGRnrBO-8" value="" style="edgeStyle=orthogonalEdgeStyle;rounded=0;orthogonalLoop=1;jettySize=auto;html=1;" parent="1" source="Rpfw_NwR-ozSrpNte6tN-8" target="EucmjnNVdxydKjGRnrBO-7" edge="1">
          <mxGeometry relative="1" as="geometry" />
        </mxCell>
        <mxCell id="Rpfw_NwR-ozSrpNte6tN-8" value="Jika input = 3" style="rhombus;whiteSpace=wrap;html=1;" parent="1" vertex="1">
          <mxGeometry x="730" y="150" width="80" height="80" as="geometry" />
        </mxCell>
        <mxCell id="Rpfw_NwR-ozSrpNte6tN-13" value="" style="edgeStyle=orthogonalEdgeStyle;rounded=0;orthogonalLoop=1;jettySize=auto;html=1;" parent="1" source="Rpfw_NwR-ozSrpNte6tN-10" target="Rpfw_NwR-ozSrpNte6tN-12" edge="1">
          <mxGeometry relative="1" as="geometry" />
        </mxCell>
        <mxCell id="EIrdgoCITJOfcZMwzrEn-4" value="tidak" style="edgeLabel;html=1;align=center;verticalAlign=middle;resizable=0;points=[];" vertex="1" connectable="0" parent="Rpfw_NwR-ozSrpNte6tN-13">
          <mxGeometry x="-0.1808" relative="1" as="geometry">
            <mxPoint as="offset" />
          </mxGeometry>
        </mxCell>
        <mxCell id="EucmjnNVdxydKjGRnrBO-13" value="" style="edgeStyle=orthogonalEdgeStyle;rounded=0;orthogonalLoop=1;jettySize=auto;html=1;" parent="1" source="iYAlvpaZnLqNB3ZeRXBc-18" target="EucmjnNVdxydKjGRnrBO-12" edge="1">
          <mxGeometry relative="1" as="geometry" />
        </mxCell>
        <mxCell id="Rpfw_NwR-ozSrpNte6tN-10" value="Jika input = 4" style="rhombus;whiteSpace=wrap;html=1;" parent="1" vertex="1">
          <mxGeometry x="950" y="150" width="80" height="80" as="geometry" />
        </mxCell>
        <mxCell id="Tg2z2954MCGiaRkVr_IJ-2" value="" style="edgeStyle=orthogonalEdgeStyle;rounded=0;orthogonalLoop=1;jettySize=auto;html=1;" parent="1" source="Rpfw_NwR-ozSrpNte6tN-12" target="Tg2z2954MCGiaRkVr_IJ-1" edge="1">
          <mxGeometry relative="1" as="geometry" />
        </mxCell>
        <mxCell id="EIrdgoCITJOfcZMwzrEn-5" value="tidak" style="edgeLabel;html=1;align=center;verticalAlign=middle;resizable=0;points=[];" vertex="1" connectable="0" parent="Tg2z2954MCGiaRkVr_IJ-2">
          <mxGeometry x="-0.0679" relative="1" as="geometry">
            <mxPoint as="offset" />
          </mxGeometry>
        </mxCell>
        <mxCell id="EucmjnNVdxydKjGRnrBO-15" value="" style="edgeStyle=orthogonalEdgeStyle;rounded=0;orthogonalLoop=1;jettySize=auto;html=1;" parent="1" source="Rpfw_NwR-ozSrpNte6tN-12" target="EucmjnNVdxydKjGRnrBO-14" edge="1">
          <mxGeometry relative="1" as="geometry" />
        </mxCell>
        <mxCell id="EIrdgoCITJOfcZMwzrEn-10" value="ya" style="edgeLabel;html=1;align=center;verticalAlign=middle;resizable=0;points=[];" vertex="1" connectable="0" parent="EucmjnNVdxydKjGRnrBO-15">
          <mxGeometry x="-0.9034" y="1" relative="1" as="geometry">
            <mxPoint as="offset" />
          </mxGeometry>
        </mxCell>
        <mxCell id="Rpfw_NwR-ozSrpNte6tN-12" value="Jika input = 5" style="rhombus;whiteSpace=wrap;html=1;" parent="1" vertex="1">
          <mxGeometry x="1140" y="150" width="80" height="80" as="geometry" />
        </mxCell>
        <mxCell id="Tg2z2954MCGiaRkVr_IJ-1" value="" style="ellipse;whiteSpace=wrap;html=1;fillColor=#a20025;fontColor=#ffffff;strokeColor=#6F0000;" parent="1" vertex="1">
          <mxGeometry x="1160" y="70" width="40" height="40" as="geometry" />
        </mxCell>
        <mxCell id="ga41-6N_7TNOr7C-JhKs-6" value="" style="edgeStyle=orthogonalEdgeStyle;rounded=0;orthogonalLoop=1;jettySize=auto;html=1;" parent="1" source="ga41-6N_7TNOr7C-JhKs-3" target="ga41-6N_7TNOr7C-JhKs-5" edge="1">
          <mxGeometry relative="1" as="geometry" />
        </mxCell>
        <mxCell id="ga41-6N_7TNOr7C-JhKs-3" value="Masukkan harga untuk wisata baru" style="shape=parallelogram;perimeter=parallelogramPerimeter;whiteSpace=wrap;html=1;fixedSize=1;" parent="1" vertex="1">
          <mxGeometry x="115" y="390" width="120" height="60" as="geometry" />
        </mxCell>
        <mxCell id="kixxz2lpKRwrgnNTFnjx-6" value="" style="edgeStyle=orthogonalEdgeStyle;rounded=0;orthogonalLoop=1;jettySize=auto;html=1;" parent="1" source="ga41-6N_7TNOr7C-JhKs-5" target="kixxz2lpKRwrgnNTFnjx-5" edge="1">
          <mxGeometry relative="1" as="geometry" />
        </mxCell>
        <mxCell id="ga41-6N_7TNOr7C-JhKs-5" value="data tersimpan dalam database" style="shape=cylinder3;whiteSpace=wrap;html=1;boundedLbl=1;backgroundOutline=1;size=15;" parent="1" vertex="1">
          <mxGeometry x="145" y="490" width="60" height="80" as="geometry" />
        </mxCell>
        <mxCell id="EucmjnNVdxydKjGRnrBO-2" value="" style="edgeStyle=orthogonalEdgeStyle;rounded=0;orthogonalLoop=1;jettySize=auto;html=1;" parent="1" source="ga41-6N_7TNOr7C-JhKs-7" target="EucmjnNVdxydKjGRnrBO-1" edge="1">
          <mxGeometry relative="1" as="geometry" />
        </mxCell>
        <mxCell id="B6gFOKc3pY4-WWnZarxP-3" value="" style="edgeStyle=orthogonalEdgeStyle;rounded=0;orthogonalLoop=1;jettySize=auto;html=1;" parent="1" source="ga41-6N_7TNOr7C-JhKs-7" target="B6gFOKc3pY4-WWnZarxP-2" edge="1">
          <mxGeometry relative="1" as="geometry" />
        </mxCell>
        <mxCell id="ga41-6N_7TNOr7C-JhKs-7" value="Masukkan ID wisata yang ingin diubah" style="shape=parallelogram;perimeter=parallelogramPerimeter;whiteSpace=wrap;html=1;fixedSize=1;" parent="1" vertex="1">
          <mxGeometry x="510" y="300" width="120" height="60" as="geometry" />
        </mxCell>
        <mxCell id="EucmjnNVdxydKjGRnrBO-4" value="" style="edgeStyle=orthogonalEdgeStyle;rounded=0;orthogonalLoop=1;jettySize=auto;html=1;" parent="1" source="EucmjnNVdxydKjGRnrBO-1" target="EucmjnNVdxydKjGRnrBO-3" edge="1">
          <mxGeometry relative="1" as="geometry" />
        </mxCell>
        <mxCell id="EucmjnNVdxydKjGRnrBO-1" value="Masukkan harga yang ingin diubah" style="shape=parallelogram;perimeter=parallelogramPerimeter;whiteSpace=wrap;html=1;fixedSize=1;" parent="1" vertex="1">
          <mxGeometry x="510" y="520" width="120" height="60" as="geometry" />
        </mxCell>
        <mxCell id="kixxz2lpKRwrgnNTFnjx-2" value="" style="edgeStyle=orthogonalEdgeStyle;rounded=0;orthogonalLoop=1;jettySize=auto;html=1;" parent="1" source="EucmjnNVdxydKjGRnrBO-3" target="kixxz2lpKRwrgnNTFnjx-1" edge="1">
          <mxGeometry relative="1" as="geometry" />
        </mxCell>
        <mxCell id="EucmjnNVdxydKjGRnrBO-3" value="tersimpan di database" style="shape=cylinder3;whiteSpace=wrap;html=1;boundedLbl=1;backgroundOutline=1;size=15;" parent="1" vertex="1">
          <mxGeometry x="540" y="660" width="60" height="80" as="geometry" />
        </mxCell>
        <mxCell id="EIrdgoCITJOfcZMwzrEn-16" value="" style="edgeStyle=orthogonalEdgeStyle;rounded=0;orthogonalLoop=1;jettySize=auto;html=1;" edge="1" parent="1" source="EucmjnNVdxydKjGRnrBO-7" target="EIrdgoCITJOfcZMwzrEn-15">
          <mxGeometry relative="1" as="geometry" />
        </mxCell>
        <mxCell id="EucmjnNVdxydKjGRnrBO-7" value="Masukkan ID wisata yang ingin di hapus" style="shape=parallelogram;perimeter=parallelogramPerimeter;whiteSpace=wrap;html=1;fixedSize=1;" parent="1" vertex="1">
          <mxGeometry x="710" y="300" width="120" height="60" as="geometry" />
        </mxCell>
        <mxCell id="kixxz2lpKRwrgnNTFnjx-4" value="" style="edgeStyle=orthogonalEdgeStyle;rounded=0;orthogonalLoop=1;jettySize=auto;html=1;" parent="1" source="EucmjnNVdxydKjGRnrBO-11" target="kixxz2lpKRwrgnNTFnjx-3" edge="1">
          <mxGeometry relative="1" as="geometry" />
        </mxCell>
        <mxCell id="EucmjnNVdxydKjGRnrBO-11" value="Data tersimpan di Database" style="shape=cylinder3;whiteSpace=wrap;html=1;boundedLbl=1;backgroundOutline=1;size=15;" parent="1" vertex="1">
          <mxGeometry x="740" y="780" width="60" height="80" as="geometry" />
        </mxCell>
        <mxCell id="iYAlvpaZnLqNB3ZeRXBc-21" value="" style="edgeStyle=orthogonalEdgeStyle;rounded=0;orthogonalLoop=1;jettySize=auto;html=1;" parent="1" source="EucmjnNVdxydKjGRnrBO-12" target="iYAlvpaZnLqNB3ZeRXBc-20" edge="1">
          <mxGeometry relative="1" as="geometry" />
        </mxCell>
        <mxCell id="EucmjnNVdxydKjGRnrBO-12" value="Menampilkan Menu tiket" style="shape=parallelogram;perimeter=parallelogramPerimeter;whiteSpace=wrap;html=1;fixedSize=1;" parent="1" vertex="1">
          <mxGeometry x="930" y="450" width="120" height="60" as="geometry" />
        </mxCell>
        <mxCell id="EucmjnNVdxydKjGRnrBO-17" value="" style="edgeStyle=orthogonalEdgeStyle;rounded=0;orthogonalLoop=1;jettySize=auto;html=1;" parent="1" source="EucmjnNVdxydKjGRnrBO-14" target="EucmjnNVdxydKjGRnrBO-16" edge="1">
          <mxGeometry relative="1" as="geometry" />
        </mxCell>
        <mxCell id="EucmjnNVdxydKjGRnrBO-14" value="Menampilkan pesan&lt;div&gt;&quot;Pilihan tidak valid&quot;&lt;/div&gt;" style="shape=parallelogram;perimeter=parallelogramPerimeter;whiteSpace=wrap;html=1;fixedSize=1;" parent="1" vertex="1">
          <mxGeometry x="1115" y="450" width="130" height="70" as="geometry" />
        </mxCell>
        <mxCell id="EucmjnNVdxydKjGRnrBO-16" value="" style="ellipse;whiteSpace=wrap;html=1;fillColor=#647687;fontColor=#ffffff;strokeColor=#315F82;" parent="1" vertex="1">
          <mxGeometry x="1162.5" y="555" width="35" height="35" as="geometry" />
        </mxCell>
        <mxCell id="iYAlvpaZnLqNB3ZeRXBc-2" value="" style="edgeStyle=orthogonalEdgeStyle;rounded=0;orthogonalLoop=1;jettySize=auto;html=1;" parent="1" source="EucmjnNVdxydKjGRnrBO-18" target="FEb0zE-_EcP4gWyUpgyo-4" edge="1">
          <mxGeometry relative="1" as="geometry" />
        </mxCell>
        <mxCell id="EucmjnNVdxydKjGRnrBO-18" value="" style="ellipse;whiteSpace=wrap;html=1;aspect=fixed;fillColor=#647687;fontColor=#ffffff;strokeColor=#314354;" parent="1" vertex="1">
          <mxGeometry x="30" y="170" width="40" height="40" as="geometry" />
        </mxCell>
        <mxCell id="kixxz2lpKRwrgnNTFnjx-1" value="" style="ellipse;whiteSpace=wrap;html=1;fillColor=#647687;strokeColor=#315F82;fontColor=#ffffff;" parent="1" vertex="1">
          <mxGeometry x="550" y="780" width="40" height="40" as="geometry" />
        </mxCell>
        <mxCell id="kixxz2lpKRwrgnNTFnjx-3" value="" style="ellipse;whiteSpace=wrap;html=1;fillColor=#647687;fontColor=#ffffff;strokeColor=#315F82;" parent="1" vertex="1">
          <mxGeometry x="750" y="920" width="40" height="40" as="geometry" />
        </mxCell>
        <mxCell id="kixxz2lpKRwrgnNTFnjx-5" value="" style="ellipse;whiteSpace=wrap;html=1;fillColor=#647687;strokeColor=#315F82;fontColor=#ffffff;" parent="1" vertex="1">
          <mxGeometry x="155" y="610" width="40" height="40" as="geometry" />
        </mxCell>
        <mxCell id="B6gFOKc3pY4-WWnZarxP-2" value="Masukkan nama wisata yang ingin diubah" style="shape=parallelogram;perimeter=parallelogramPerimeter;whiteSpace=wrap;html=1;fixedSize=1;" parent="1" vertex="1">
          <mxGeometry x="510" y="430" width="120" height="60" as="geometry" />
        </mxCell>
        <mxCell id="iYAlvpaZnLqNB3ZeRXBc-5" value="" style="edgeStyle=orthogonalEdgeStyle;rounded=0;orthogonalLoop=1;jettySize=auto;html=1;" parent="1" source="iYAlvpaZnLqNB3ZeRXBc-3" target="iYAlvpaZnLqNB3ZeRXBc-4" edge="1">
          <mxGeometry relative="1" as="geometry" />
        </mxCell>
        <mxCell id="iYAlvpaZnLqNB3ZeRXBc-3" value="Masuk ke database" style="shape=cylinder3;whiteSpace=wrap;html=1;boundedLbl=1;backgroundOutline=1;size=15;" parent="1" vertex="1">
          <mxGeometry x="320" y="260" width="60" height="80" as="geometry" />
        </mxCell>
        <mxCell id="iYAlvpaZnLqNB3ZeRXBc-7" value="" style="edgeStyle=orthogonalEdgeStyle;rounded=0;orthogonalLoop=1;jettySize=auto;html=1;" parent="1" source="iYAlvpaZnLqNB3ZeRXBc-4" target="iYAlvpaZnLqNB3ZeRXBc-6" edge="1">
          <mxGeometry relative="1" as="geometry" />
        </mxCell>
        <mxCell id="EIrdgoCITJOfcZMwzrEn-11" value="ya" style="edgeLabel;html=1;align=center;verticalAlign=middle;resizable=0;points=[];" vertex="1" connectable="0" parent="iYAlvpaZnLqNB3ZeRXBc-7">
          <mxGeometry x="-0.5397" relative="1" as="geometry">
            <mxPoint as="offset" />
          </mxGeometry>
        </mxCell>
        <mxCell id="iYAlvpaZnLqNB3ZeRXBc-8" value="" style="edgeStyle=orthogonalEdgeStyle;rounded=0;orthogonalLoop=1;jettySize=auto;html=1;" parent="1" source="iYAlvpaZnLqNB3ZeRXBc-4" target="ga41-6N_7TNOr7C-JhKs-3" edge="1">
          <mxGeometry relative="1" as="geometry" />
        </mxCell>
        <mxCell id="EIrdgoCITJOfcZMwzrEn-12" value="tidak" style="edgeLabel;html=1;align=center;verticalAlign=middle;resizable=0;points=[];" vertex="1" connectable="0" parent="iYAlvpaZnLqNB3ZeRXBc-8">
          <mxGeometry x="-0.0602" relative="1" as="geometry">
            <mxPoint as="offset" />
          </mxGeometry>
        </mxCell>
        <mxCell id="iYAlvpaZnLqNB3ZeRXBc-4" value="Apakah nama wisatanya ada di dalam database" style="rhombus;whiteSpace=wrap;html=1;" parent="1" vertex="1">
          <mxGeometry x="300" y="370" width="100" height="100" as="geometry" />
        </mxCell>
        <mxCell id="iYAlvpaZnLqNB3ZeRXBc-10" value="" style="edgeStyle=orthogonalEdgeStyle;rounded=0;orthogonalLoop=1;jettySize=auto;html=1;" parent="1" source="iYAlvpaZnLqNB3ZeRXBc-6" target="iYAlvpaZnLqNB3ZeRXBc-9" edge="1">
          <mxGeometry relative="1" as="geometry" />
        </mxCell>
        <mxCell id="iYAlvpaZnLqNB3ZeRXBc-6" value="Tambahkan wisata ke dalam program" style="shape=parallelogram;perimeter=parallelogramPerimeter;whiteSpace=wrap;html=1;fixedSize=1;" parent="1" vertex="1">
          <mxGeometry x="290" y="510" width="120" height="60" as="geometry" />
        </mxCell>
        <mxCell id="iYAlvpaZnLqNB3ZeRXBc-12" value="" style="edgeStyle=orthogonalEdgeStyle;rounded=0;orthogonalLoop=1;jettySize=auto;html=1;" parent="1" source="iYAlvpaZnLqNB3ZeRXBc-9" target="iYAlvpaZnLqNB3ZeRXBc-11" edge="1">
          <mxGeometry relative="1" as="geometry" />
        </mxCell>
        <mxCell id="iYAlvpaZnLqNB3ZeRXBc-9" value="Data tersimpan di Database" style="shape=cylinder3;whiteSpace=wrap;html=1;boundedLbl=1;backgroundOutline=1;size=15;" parent="1" vertex="1">
          <mxGeometry x="320" y="625" width="60" height="80" as="geometry" />
        </mxCell>
        <mxCell id="iYAlvpaZnLqNB3ZeRXBc-11" value="" style="ellipse;whiteSpace=wrap;html=1;fillColor=#647687;strokeColor=#315F82;fontColor=#ffffff;" parent="1" vertex="1">
          <mxGeometry x="330" y="755" width="40" height="35" as="geometry" />
        </mxCell>
        <mxCell id="iYAlvpaZnLqNB3ZeRXBc-19" value="" style="edgeStyle=orthogonalEdgeStyle;rounded=0;orthogonalLoop=1;jettySize=auto;html=1;" parent="1" source="Rpfw_NwR-ozSrpNte6tN-10" target="iYAlvpaZnLqNB3ZeRXBc-18" edge="1">
          <mxGeometry relative="1" as="geometry">
            <mxPoint x="690" y="230" as="sourcePoint" />
            <mxPoint x="690" y="480" as="targetPoint" />
          </mxGeometry>
        </mxCell>
        <mxCell id="EIrdgoCITJOfcZMwzrEn-9" value="ya" style="edgeLabel;html=1;align=center;verticalAlign=middle;resizable=0;points=[];" vertex="1" connectable="0" parent="iYAlvpaZnLqNB3ZeRXBc-19">
          <mxGeometry x="-0.5088" y="-1" relative="1" as="geometry">
            <mxPoint as="offset" />
          </mxGeometry>
        </mxCell>
        <mxCell id="iYAlvpaZnLqNB3ZeRXBc-18" value="masuk ke Databse" style="shape=cylinder3;whiteSpace=wrap;html=1;boundedLbl=1;backgroundOutline=1;size=15;" parent="1" vertex="1">
          <mxGeometry x="960" y="300" width="60" height="80" as="geometry" />
        </mxCell>
        <mxCell id="iYAlvpaZnLqNB3ZeRXBc-20" value="" style="ellipse;whiteSpace=wrap;html=1;fillColor=#647687;fontColor=#ffffff;strokeColor=#315F82;" parent="1" vertex="1">
          <mxGeometry x="970" y="550" width="40" height="45" as="geometry" />
        </mxCell>
        <mxCell id="EIrdgoCITJOfcZMwzrEn-23" value="" style="edgeStyle=orthogonalEdgeStyle;rounded=0;orthogonalLoop=1;jettySize=auto;html=1;" edge="1" parent="1" source="3mL5dLvbkgUC9szrQgQ8-1" target="EIrdgoCITJOfcZMwzrEn-22">
          <mxGeometry relative="1" as="geometry" />
        </mxCell>
        <mxCell id="3mL5dLvbkgUC9szrQgQ8-1" value="Apakah ID ada di dalam database" style="rhombus;whiteSpace=wrap;html=1;" parent="1" vertex="1">
          <mxGeometry x="730" y="530" width="80" height="80" as="geometry" />
        </mxCell>
        <mxCell id="3mL5dLvbkgUC9szrQgQ8-2" style="edgeStyle=orthogonalEdgeStyle;rounded=0;orthogonalLoop=1;jettySize=auto;html=1;exitX=0.5;exitY=1;exitDx=0;exitDy=0;entryX=0.5;entryY=0;entryDx=0;entryDy=0;entryPerimeter=0;" parent="1" source="EIrdgoCITJOfcZMwzrEn-19" target="EucmjnNVdxydKjGRnrBO-11" edge="1">
          <mxGeometry relative="1" as="geometry" />
        </mxCell>
        <mxCell id="EIrdgoCITJOfcZMwzrEn-8" value="ya" style="text;html=1;align=center;verticalAlign=middle;resizable=0;points=[];autosize=1;strokeColor=none;fillColor=none;" vertex="1" parent="1">
          <mxGeometry x="550" y="228" width="40" height="30" as="geometry" />
        </mxCell>
        <mxCell id="EIrdgoCITJOfcZMwzrEn-17" value="" style="edgeStyle=orthogonalEdgeStyle;rounded=0;orthogonalLoop=1;jettySize=auto;html=1;" edge="1" parent="1" source="EIrdgoCITJOfcZMwzrEn-15" target="3mL5dLvbkgUC9szrQgQ8-1">
          <mxGeometry relative="1" as="geometry" />
        </mxCell>
        <mxCell id="EIrdgoCITJOfcZMwzrEn-15" value="database" style="shape=cylinder3;whiteSpace=wrap;html=1;boundedLbl=1;backgroundOutline=1;size=15;" vertex="1" parent="1">
          <mxGeometry x="740" y="400" width="60" height="80" as="geometry" />
        </mxCell>
        <mxCell id="EIrdgoCITJOfcZMwzrEn-20" value="" style="edgeStyle=orthogonalEdgeStyle;rounded=0;orthogonalLoop=1;jettySize=auto;html=1;exitX=0.5;exitY=1;exitDx=0;exitDy=0;entryX=0.5;entryY=0;entryDx=0;entryDy=0;entryPerimeter=0;" edge="1" parent="1" source="3mL5dLvbkgUC9szrQgQ8-1" target="EIrdgoCITJOfcZMwzrEn-19">
          <mxGeometry relative="1" as="geometry">
            <mxPoint x="770" y="610" as="sourcePoint" />
            <mxPoint x="770" y="780" as="targetPoint" />
          </mxGeometry>
        </mxCell>
        <mxCell id="EIrdgoCITJOfcZMwzrEn-21" value="Text" style="edgeLabel;html=1;align=center;verticalAlign=middle;resizable=0;points=[];" vertex="1" connectable="0" parent="EIrdgoCITJOfcZMwzrEn-20">
          <mxGeometry x="-0.3496" relative="1" as="geometry">
            <mxPoint as="offset" />
          </mxGeometry>
        </mxCell>
        <mxCell id="EIrdgoCITJOfcZMwzrEn-19" value="Data terpilih&lt;div&gt;&amp;nbsp;terhapus&lt;/div&gt;" style="shape=parallelogram;perimeter=parallelogramPerimeter;whiteSpace=wrap;html=1;fixedSize=1;" vertex="1" parent="1">
          <mxGeometry x="710" y="660" width="120" height="60" as="geometry" />
        </mxCell>
        <mxCell id="EIrdgoCITJOfcZMwzrEn-22" value="" style="ellipse;whiteSpace=wrap;html=1;fillColor=#315F82;strokeColor=#315F82;" vertex="1" parent="1">
          <mxGeometry x="830" y="550" width="40" height="40" as="geometry" />
        </mxCell>
      </root>
    </mxGraphModel>
  </diagram>
  <diagram id="lDV2pK3pGViPqmaD2tL-" name="Page-3">
    <mxGraphModel dx="2001" dy="543" grid="1" gridSize="10" guides="1" tooltips="1" connect="1" arrows="1" fold="1" page="1" pageScale="1" pageWidth="850" pageHeight="1100" math="0" shadow="0">
      <root>
        <mxCell id="0" />
        <mxCell id="1" parent="0" />
        <mxCell id="7dppbGqrc2vtE0lnBJWG-3" value="" style="edgeStyle=orthogonalEdgeStyle;rounded=0;orthogonalLoop=1;jettySize=auto;html=1;" parent="1" source="7dppbGqrc2vtE0lnBJWG-1" target="7dppbGqrc2vtE0lnBJWG-2" edge="1">
          <mxGeometry relative="1" as="geometry" />
        </mxCell>
        <mxCell id="7dppbGqrc2vtE0lnBJWG-1" value="Menu User" style="shape=offPageConnector;whiteSpace=wrap;html=1;fillColor=#dae8fc;strokeColor=#6c8ebf;" parent="1" vertex="1">
          <mxGeometry x="-721.25" y="20" width="80" height="80" as="geometry" />
        </mxCell>
        <mxCell id="DUhV8xahko55l3OqSoUb-4" value="" style="edgeStyle=orthogonalEdgeStyle;rounded=0;orthogonalLoop=1;jettySize=auto;html=1;" parent="1" target="DUhV8xahko55l3OqSoUb-3" edge="1">
          <mxGeometry relative="1" as="geometry">
            <mxPoint x="-700" y="240" as="sourcePoint" />
            <Array as="points">
              <mxPoint x="-692" y="240" />
            </Array>
          </mxGeometry>
        </mxCell>
        <mxCell id="7dppbGqrc2vtE0lnBJWG-2" value="Menginput pilihan (1/2/3/4/5)&lt;div&gt;&lt;div&gt;1. Lihat Daftar Wisata&lt;/div&gt;&lt;div&gt;2. Pesan Tiket&lt;/div&gt;&lt;div&gt;3. Top-up Saldo&lt;/div&gt;&lt;div&gt;4. Cek Saldo&lt;/div&gt;&lt;div&gt;5. Logout&lt;/div&gt;&lt;/div&gt;" style="shape=parallelogram;perimeter=parallelogramPerimeter;whiteSpace=wrap;html=1;fixedSize=1;" parent="1" vertex="1">
          <mxGeometry x="-753.75" y="140" width="145" height="110" as="geometry" />
        </mxCell>
        <mxCell id="DUhV8xahko55l3OqSoUb-6" value="" style="edgeStyle=orthogonalEdgeStyle;rounded=0;orthogonalLoop=1;jettySize=auto;html=1;" parent="1" source="DUhV8xahko55l3OqSoUb-3" target="DUhV8xahko55l3OqSoUb-5" edge="1">
          <mxGeometry relative="1" as="geometry" />
        </mxCell>
        <mxCell id="DUhV8xahko55l3OqSoUb-14" value="" style="edgeStyle=orthogonalEdgeStyle;rounded=0;orthogonalLoop=1;jettySize=auto;html=1;" parent="1" source="A8TQw5BEZoTD3wNLNpbi-1" target="DUhV8xahko55l3OqSoUb-13" edge="1">
          <mxGeometry relative="1" as="geometry" />
        </mxCell>
        <mxCell id="DUhV8xahko55l3OqSoUb-3" value="Jika Input = 1" style="rhombus;whiteSpace=wrap;html=1;" parent="1" vertex="1">
          <mxGeometry x="-732.5" y="320" width="80" height="80" as="geometry" />
        </mxCell>
        <mxCell id="DUhV8xahko55l3OqSoUb-8" value="" style="edgeStyle=orthogonalEdgeStyle;rounded=0;orthogonalLoop=1;jettySize=auto;html=1;" parent="1" source="DUhV8xahko55l3OqSoUb-5" target="DUhV8xahko55l3OqSoUb-7" edge="1">
          <mxGeometry relative="1" as="geometry" />
        </mxCell>
        <mxCell id="DUhV8xahko55l3OqSoUb-20" value="" style="edgeStyle=orthogonalEdgeStyle;rounded=0;orthogonalLoop=1;jettySize=auto;html=1;" parent="1" source="A8TQw5BEZoTD3wNLNpbi-6" target="DUhV8xahko55l3OqSoUb-19" edge="1">
          <mxGeometry relative="1" as="geometry" />
        </mxCell>
        <mxCell id="DUhV8xahko55l3OqSoUb-5" value="Jika Input = 2" style="rhombus;whiteSpace=wrap;html=1;" parent="1" vertex="1">
          <mxGeometry x="-732.5" y="480" width="80" height="80" as="geometry" />
        </mxCell>
        <mxCell id="DUhV8xahko55l3OqSoUb-10" value="" style="edgeStyle=orthogonalEdgeStyle;rounded=0;orthogonalLoop=1;jettySize=auto;html=1;" parent="1" source="DUhV8xahko55l3OqSoUb-7" target="DUhV8xahko55l3OqSoUb-9" edge="1">
          <mxGeometry relative="1" as="geometry" />
        </mxCell>
        <mxCell id="DUhV8xahko55l3OqSoUb-39" value="" style="edgeStyle=orthogonalEdgeStyle;rounded=0;orthogonalLoop=1;jettySize=auto;html=1;" parent="1" source="DUhV8xahko55l3OqSoUb-7" target="DUhV8xahko55l3OqSoUb-38" edge="1">
          <mxGeometry relative="1" as="geometry" />
        </mxCell>
        <mxCell id="DUhV8xahko55l3OqSoUb-7" value="Jika input = 3" style="rhombus;whiteSpace=wrap;html=1;" parent="1" vertex="1">
          <mxGeometry x="-732.5" y="640" width="80" height="80" as="geometry" />
        </mxCell>
        <mxCell id="DUhV8xahko55l3OqSoUb-12" value="" style="edgeStyle=orthogonalEdgeStyle;rounded=0;orthogonalLoop=1;jettySize=auto;html=1;" parent="1" source="DUhV8xahko55l3OqSoUb-9" target="DUhV8xahko55l3OqSoUb-11" edge="1">
          <mxGeometry relative="1" as="geometry" />
        </mxCell>
        <mxCell id="bisvbys64DKFuHTZ1ZJN-4" value="" style="edgeStyle=orthogonalEdgeStyle;rounded=0;orthogonalLoop=1;jettySize=auto;html=1;" parent="1" source="A8TQw5BEZoTD3wNLNpbi-3" target="bisvbys64DKFuHTZ1ZJN-3" edge="1">
          <mxGeometry relative="1" as="geometry" />
        </mxCell>
        <mxCell id="DUhV8xahko55l3OqSoUb-9" value="Jika input = 4" style="rhombus;whiteSpace=wrap;html=1;" parent="1" vertex="1">
          <mxGeometry x="-732.49" y="777.5" width="80" height="80" as="geometry" />
        </mxCell>
        <mxCell id="bisvbys64DKFuHTZ1ZJN-6" value="" style="edgeStyle=orthogonalEdgeStyle;rounded=0;orthogonalLoop=1;jettySize=auto;html=1;" parent="1" source="DUhV8xahko55l3OqSoUb-11" edge="1">
          <mxGeometry relative="1" as="geometry">
            <mxPoint x="-590" y="960" as="targetPoint" />
          </mxGeometry>
        </mxCell>
        <mxCell id="s4YXOHdCEZjYrgoLZPAl-5" value="Ya" style="edgeLabel;html=1;align=center;verticalAlign=middle;resizable=0;points=[];" parent="bisvbys64DKFuHTZ1ZJN-6" vertex="1" connectable="0">
          <mxGeometry x="-0.1815" y="1" relative="1" as="geometry">
            <mxPoint as="offset" />
          </mxGeometry>
        </mxCell>
        <mxCell id="s4YXOHdCEZjYrgoLZPAl-2" value="" style="edgeStyle=orthogonalEdgeStyle;rounded=0;orthogonalLoop=1;jettySize=auto;html=1;" parent="1" source="DUhV8xahko55l3OqSoUb-11" target="s4YXOHdCEZjYrgoLZPAl-1" edge="1">
          <mxGeometry relative="1" as="geometry" />
        </mxCell>
        <mxCell id="s4YXOHdCEZjYrgoLZPAl-3" value="Tidak" style="edgeLabel;html=1;align=center;verticalAlign=middle;resizable=0;points=[];" parent="s4YXOHdCEZjYrgoLZPAl-2" vertex="1" connectable="0">
          <mxGeometry x="-0.3054" y="-1" relative="1" as="geometry">
            <mxPoint y="-1" as="offset" />
          </mxGeometry>
        </mxCell>
        <mxCell id="DUhV8xahko55l3OqSoUb-11" value="Jika input = 5" style="rhombus;whiteSpace=wrap;html=1;" parent="1" vertex="1">
          <mxGeometry x="-732.5" y="920" width="80" height="80" as="geometry" />
        </mxCell>
        <mxCell id="DUhV8xahko55l3OqSoUb-16" value="" style="edgeStyle=orthogonalEdgeStyle;rounded=0;orthogonalLoop=1;jettySize=auto;html=1;" parent="1" source="DUhV8xahko55l3OqSoUb-13" target="DUhV8xahko55l3OqSoUb-15" edge="1">
          <mxGeometry relative="1" as="geometry" />
        </mxCell>
        <mxCell id="DUhV8xahko55l3OqSoUb-13" value="Menampilkan Daftar tiket wisata dan harga" style="shape=parallelogram;perimeter=parallelogramPerimeter;whiteSpace=wrap;html=1;fixedSize=1;" parent="1" vertex="1">
          <mxGeometry x="-480" y="330" width="120" height="60" as="geometry" />
        </mxCell>
        <mxCell id="DUhV8xahko55l3OqSoUb-15" value="" style="ellipse;whiteSpace=wrap;html=1;fillColor=#a0522d;fontColor=#ffffff;strokeColor=#6D1F00;" parent="1" vertex="1">
          <mxGeometry x="-270" y="340" width="40" height="40" as="geometry" />
        </mxCell>
        <mxCell id="DUhV8xahko55l3OqSoUb-18" value="" style="edgeStyle=orthogonalEdgeStyle;rounded=0;orthogonalLoop=1;jettySize=auto;html=1;" parent="1" source="DUhV8xahko55l3OqSoUb-17" target="7dppbGqrc2vtE0lnBJWG-2" edge="1">
          <mxGeometry relative="1" as="geometry" />
        </mxCell>
        <mxCell id="DUhV8xahko55l3OqSoUb-17" value="" style="ellipse;whiteSpace=wrap;html=1;aspect=fixed;fillColor=#a0522d;fontColor=#ffffff;strokeColor=#6D1F00;" parent="1" vertex="1">
          <mxGeometry x="-840" y="176.25" width="37.5" height="37.5" as="geometry" />
        </mxCell>
        <mxCell id="DUhV8xahko55l3OqSoUb-22" value="" style="edgeStyle=orthogonalEdgeStyle;rounded=0;orthogonalLoop=1;jettySize=auto;html=1;" parent="1" source="DUhV8xahko55l3OqSoUb-19" target="DUhV8xahko55l3OqSoUb-21" edge="1">
          <mxGeometry relative="1" as="geometry" />
        </mxCell>
        <mxCell id="DUhV8xahko55l3OqSoUb-19" value="Menampilkan Daftar wisata dan harganya" style="shape=parallelogram;perimeter=parallelogramPerimeter;whiteSpace=wrap;html=1;fixedSize=1;" parent="1" vertex="1">
          <mxGeometry x="-485" y="490" width="120" height="60" as="geometry" />
        </mxCell>
        <mxCell id="DUhV8xahko55l3OqSoUb-33" value="" style="edgeStyle=orthogonalEdgeStyle;rounded=0;orthogonalLoop=1;jettySize=auto;html=1;" parent="1" source="DUhV8xahko55l3OqSoUb-21" target="DUhV8xahko55l3OqSoUb-32" edge="1">
          <mxGeometry relative="1" as="geometry" />
        </mxCell>
        <mxCell id="DUhV8xahko55l3OqSoUb-21" value="Memasukkan Id wisata yang ingin di pesan" style="shape=parallelogram;perimeter=parallelogramPerimeter;whiteSpace=wrap;html=1;fixedSize=1;" parent="1" vertex="1">
          <mxGeometry x="-300" y="490" width="120" height="60" as="geometry" />
        </mxCell>
        <mxCell id="DUhV8xahko55l3OqSoUb-35" value="" style="edgeStyle=orthogonalEdgeStyle;rounded=0;orthogonalLoop=1;jettySize=auto;html=1;" parent="1" source="DUhV8xahko55l3OqSoUb-32" target="DUhV8xahko55l3OqSoUb-34" edge="1">
          <mxGeometry relative="1" as="geometry" />
        </mxCell>
        <mxCell id="DUhV8xahko55l3OqSoUb-32" value="Memasukkan jumlah tiket yang ingin di pesan" style="shape=parallelogram;perimeter=parallelogramPerimeter;whiteSpace=wrap;html=1;fixedSize=1;" parent="1" vertex="1">
          <mxGeometry x="-130" y="490" width="120" height="60" as="geometry" />
        </mxCell>
        <mxCell id="DUhV8xahko55l3OqSoUb-37" value="" style="edgeStyle=orthogonalEdgeStyle;rounded=0;orthogonalLoop=1;jettySize=auto;html=1;" parent="1" source="DUhV8xahko55l3OqSoUb-34" target="DUhV8xahko55l3OqSoUb-36" edge="1">
          <mxGeometry relative="1" as="geometry" />
        </mxCell>
        <mxCell id="DUhV8xahko55l3OqSoUb-34" value="Menampilkan Invoice dari pesanan" style="shape=parallelogram;perimeter=parallelogramPerimeter;whiteSpace=wrap;html=1;fixedSize=1;" parent="1" vertex="1">
          <mxGeometry x="-130" y="710" width="120" height="60" as="geometry" />
        </mxCell>
        <mxCell id="DUhV8xahko55l3OqSoUb-36" value="" style="ellipse;whiteSpace=wrap;html=1;fillColor=#a0522d;fontColor=#ffffff;strokeColor=#6D1F00;" parent="1" vertex="1">
          <mxGeometry x="-90" y="835" width="40" height="40" as="geometry" />
        </mxCell>
        <mxCell id="A8TQw5BEZoTD3wNLNpbi-9" value="" style="edgeStyle=orthogonalEdgeStyle;rounded=0;orthogonalLoop=1;jettySize=auto;html=1;" parent="1" source="DUhV8xahko55l3OqSoUb-38" target="A8TQw5BEZoTD3wNLNpbi-8" edge="1">
          <mxGeometry relative="1" as="geometry" />
        </mxCell>
        <mxCell id="DUhV8xahko55l3OqSoUb-38" value="Masukkan jumlah yang ingin di top up" style="shape=parallelogram;perimeter=parallelogramPerimeter;whiteSpace=wrap;html=1;fixedSize=1;" parent="1" vertex="1">
          <mxGeometry x="-630" y="650" width="120" height="60" as="geometry" />
        </mxCell>
        <mxCell id="s4YXOHdCEZjYrgoLZPAl-7" value="" style="edgeStyle=orthogonalEdgeStyle;rounded=0;orthogonalLoop=1;jettySize=auto;html=1;" parent="1" source="bisvbys64DKFuHTZ1ZJN-1" target="s4YXOHdCEZjYrgoLZPAl-6" edge="1">
          <mxGeometry relative="1" as="geometry" />
        </mxCell>
        <mxCell id="bisvbys64DKFuHTZ1ZJN-1" value="Data telah tersimpan di Database" style="shape=cylinder3;whiteSpace=wrap;html=1;boundedLbl=1;backgroundOutline=1;size=15;" parent="1" vertex="1">
          <mxGeometry x="-245" y="640" width="60" height="80" as="geometry" />
        </mxCell>
        <mxCell id="bisvbys64DKFuHTZ1ZJN-8" value="" style="edgeStyle=orthogonalEdgeStyle;rounded=0;orthogonalLoop=1;jettySize=auto;html=1;" parent="1" source="bisvbys64DKFuHTZ1ZJN-3" target="bisvbys64DKFuHTZ1ZJN-7" edge="1">
          <mxGeometry relative="1" as="geometry" />
        </mxCell>
        <mxCell id="bisvbys64DKFuHTZ1ZJN-3" value="Menampilkan&lt;div&gt;&amp;nbsp;Saldo&amp;nbsp;&lt;/div&gt;" style="shape=parallelogram;perimeter=parallelogramPerimeter;whiteSpace=wrap;html=1;fixedSize=1;" parent="1" vertex="1">
          <mxGeometry x="-510" y="787.5" width="120" height="60" as="geometry" />
        </mxCell>
        <mxCell id="bisvbys64DKFuHTZ1ZJN-7" value="" style="ellipse;whiteSpace=wrap;html=1;fillColor=#a0522d;fontColor=#ffffff;strokeColor=#6D1F00;" parent="1" vertex="1">
          <mxGeometry x="-367.5" y="800" width="35" height="35" as="geometry" />
        </mxCell>
        <mxCell id="s4YXOHdCEZjYrgoLZPAl-1" value="" style="ellipse;whiteSpace=wrap;html=1;fillColor=#a0522d;fontColor=#ffffff;strokeColor=#6D1F00;" parent="1" vertex="1">
          <mxGeometry x="-709.38" y="1040" width="33.75" height="30" as="geometry" />
        </mxCell>
        <mxCell id="s4YXOHdCEZjYrgoLZPAl-4" value="" style="ellipse;whiteSpace=wrap;html=1;aspect=fixed;fillColor=#a20025;fontColor=#ffffff;strokeColor=#6F0000;" parent="1" vertex="1">
          <mxGeometry x="-588.75" y="940" width="40" height="40" as="geometry" />
        </mxCell>
        <mxCell id="s4YXOHdCEZjYrgoLZPAl-6" value="" style="ellipse;whiteSpace=wrap;html=1;fillColor=#a0522d;fontColor=#ffffff;strokeColor=#6D1F00;" parent="1" vertex="1">
          <mxGeometry x="-240" y="940" width="50" height="50" as="geometry" />
        </mxCell>
        <mxCell id="A8TQw5BEZoTD3wNLNpbi-2" value="" style="edgeStyle=orthogonalEdgeStyle;rounded=0;orthogonalLoop=1;jettySize=auto;html=1;" parent="1" source="DUhV8xahko55l3OqSoUb-3" target="A8TQw5BEZoTD3wNLNpbi-1" edge="1">
          <mxGeometry relative="1" as="geometry">
            <mxPoint x="-652" y="360" as="sourcePoint" />
            <mxPoint x="-440" y="360" as="targetPoint" />
          </mxGeometry>
        </mxCell>
        <mxCell id="A8TQw5BEZoTD3wNLNpbi-1" value="Masuk Ke database" style="shape=cylinder3;whiteSpace=wrap;html=1;boundedLbl=1;backgroundOutline=1;size=15;" parent="1" vertex="1">
          <mxGeometry x="-598.75" y="320" width="60" height="80" as="geometry" />
        </mxCell>
        <mxCell id="A8TQw5BEZoTD3wNLNpbi-4" value="" style="edgeStyle=orthogonalEdgeStyle;rounded=0;orthogonalLoop=1;jettySize=auto;html=1;" parent="1" source="DUhV8xahko55l3OqSoUb-9" target="A8TQw5BEZoTD3wNLNpbi-3" edge="1">
          <mxGeometry relative="1" as="geometry">
            <mxPoint x="-652" y="818" as="sourcePoint" />
            <mxPoint x="-370" y="818" as="targetPoint" />
          </mxGeometry>
        </mxCell>
        <mxCell id="A8TQw5BEZoTD3wNLNpbi-3" value="Masuk ke Database" style="shape=cylinder3;whiteSpace=wrap;html=1;boundedLbl=1;backgroundOutline=1;size=15;" parent="1" vertex="1">
          <mxGeometry x="-620" y="777.5" width="60" height="80" as="geometry" />
        </mxCell>
        <mxCell id="A8TQw5BEZoTD3wNLNpbi-5" style="edgeStyle=orthogonalEdgeStyle;rounded=0;orthogonalLoop=1;jettySize=auto;html=1;exitX=0.5;exitY=1;exitDx=0;exitDy=0;" parent="1" source="DUhV8xahko55l3OqSoUb-34" target="DUhV8xahko55l3OqSoUb-34" edge="1">
          <mxGeometry relative="1" as="geometry" />
        </mxCell>
        <mxCell id="A8TQw5BEZoTD3wNLNpbi-7" value="" style="edgeStyle=orthogonalEdgeStyle;rounded=0;orthogonalLoop=1;jettySize=auto;html=1;" parent="1" source="DUhV8xahko55l3OqSoUb-5" target="A8TQw5BEZoTD3wNLNpbi-6" edge="1">
          <mxGeometry relative="1" as="geometry">
            <mxPoint x="-652" y="520" as="sourcePoint" />
            <mxPoint x="-475" y="520" as="targetPoint" />
          </mxGeometry>
        </mxCell>
        <mxCell id="A8TQw5BEZoTD3wNLNpbi-6" value="Masuk ke database" style="shape=cylinder3;whiteSpace=wrap;html=1;boundedLbl=1;backgroundOutline=1;size=15;" parent="1" vertex="1">
          <mxGeometry x="-608.75" y="480" width="60" height="80" as="geometry" />
        </mxCell>
        <mxCell id="A8TQw5BEZoTD3wNLNpbi-12" value="" style="edgeStyle=orthogonalEdgeStyle;rounded=0;orthogonalLoop=1;jettySize=auto;html=1;" parent="1" source="A8TQw5BEZoTD3wNLNpbi-8" target="bisvbys64DKFuHTZ1ZJN-7" edge="1">
          <mxGeometry relative="1" as="geometry" />
        </mxCell>
        <mxCell id="A8TQw5BEZoTD3wNLNpbi-13" value="" style="edgeStyle=orthogonalEdgeStyle;rounded=0;orthogonalLoop=1;jettySize=auto;html=1;" parent="1" source="A8TQw5BEZoTD3wNLNpbi-8" target="bisvbys64DKFuHTZ1ZJN-1" edge="1">
          <mxGeometry relative="1" as="geometry" />
        </mxCell>
        <mxCell id="A8TQw5BEZoTD3wNLNpbi-8" value="Apakah Jumlah top lebih dari 5 juta" style="rhombus;whiteSpace=wrap;html=1;" parent="1" vertex="1">
          <mxGeometry x="-390" y="640" width="80" height="80" as="geometry" />
        </mxCell>
      </root>
    </mxGraphModel>
  </diagram>
</mxfile>
